<svg xmlns="http://www.w3.org/2000/svg"><symbol id="htmlacademy" viewBox="0 0 26.096 33.803"><path d="M13.047 0L0 1.456v24.475l13.047 7.835v.037l13.049-7.872V1.557L13.047 0zm10.99 24.745l-10.989 6.622v-7.385l-6.369-2.858v-.021l6.373-2.816v-.02h.001v.011l6.366 2.814v-.006l.01.006v-1.234l-6.366-2.813-.003.003-.007-.003v.011h-.001v-.003L6.679 19.87v-1.235l5.848-2.584-1.385-.622-4.463 1.973v-1.234l3.077-1.36-1.385-.622-1.692.748V13.7l.306-.135-3.73-1.674 9.793-4.248V2.084l10.989 1.321v21.34z"/><path d="M19.428 17.389l-4.47-1.975-1.388.621 5.858 2.589zM19.428 14.921l-1.694-.749-1.388.621 3.082 1.362z"/></symbol><symbol id="icon-android-logo" viewBox="0 0 42.084 47.041"><path fill="#A4C639" d="M34.144 14.009H7.945c-.009.11-.018.22-.018.333v18.754c0 1.926 1.457 3.491 3.316 3.628v7.433a2.884 2.884 0 1 0 5.77 0v-7.419h8.058v7.419a2.885 2.885 0 1 0 5.771 0v-7.433c1.858-.137 3.315-1.702 3.315-3.628V14.342c0-.113-.004-.223-.013-.333zM2.886 15.679a2.886 2.886 0 0 1 2.886 2.885v12.378a2.885 2.885 0 1 1-5.772 0V18.564a2.885 2.885 0 0 1 2.886-2.885zM39.198 15.679a2.885 2.885 0 0 1 2.886 2.885v12.378a2.885 2.885 0 0 1-2.886 2.886 2.884 2.884 0 0 1-2.885-2.886V18.564a2.884 2.884 0 0 1 2.885-2.885zM8.03 11.967h26.025c-.039-2.783-1.234-5.322-3.186-7.275L33.315.457a.304.304 0 1 0-.527-.304L30.416 4.26c-2.052-1.853-4.821-3.101-7.924-3.4h-2.9c-3.102.299-5.872 1.547-7.924 3.4L9.296.152a.304.304 0 0 0-.526.304l2.445 4.235c-1.95 1.954-3.147 4.493-3.185 7.276zm17.293-5.163c-.002-.805.664-1.46 1.489-1.462.825-.002 1.494.648 1.497 1.454v.008c.002.805-.664 1.46-1.489 1.462-.824.002-1.494-.649-1.497-1.454v-.008zm-11.143 0c-.001-.805.665-1.46 1.489-1.462.824-.002 1.494.648 1.497 1.454v.008c.002.805-.664 1.46-1.488 1.462-.825.002-1.495-.649-1.498-1.454v-.008z"/></symbol><symbol id="icon-apple-logo" viewBox="0 0 46.21 56.753"><path fill="#FFF" d="M38.593 30.15c.081 8.59 7.535 11.447 7.617 11.483-.062.202-1.19 4.073-3.927 8.072-2.365 3.457-4.82 6.901-8.688 6.973-3.799.07-5.021-2.253-9.365-2.253s-5.702 2.182-9.298 2.323c-3.733.142-6.576-3.739-8.961-7.184-4.875-7.046-8.598-19.91-3.597-28.593 2.484-4.313 6.925-7.043 11.743-7.114 3.666-.069 7.126 2.466 9.366 2.466 2.241 0 6.444-3.049 10.865-2.601 1.85.077 7.044.747 10.38 5.629-.269.168-6.197 3.62-6.135 10.799m-7.14-21.088c1.982-2.4 3.316-5.739 2.952-9.062-2.857.115-6.312 1.904-8.36 4.302-1.837 2.123-3.445 5.521-3.011 8.778 3.184.246 6.436-1.619 8.419-4.018"/></symbol><symbol id="icon-contrast" viewBox="0 0 16 16"><path d="M8 3v10c2.762 0 5-2.238 5-5s-2.238-5-5-5z"/><path d="M8 0a8 8 0 1 0 0 16A8 8 0 0 0 8 0zm0 14A6 6 0 0 1 8 2a6 6 0 0 1 0 12z"/></symbol><symbol id="icon-crop" viewBox="0 0 561 561"><path d="M408 357h51V153c0-28.05-22.95-51-51-51H204v51h204v204zm-255 51V0h-51v102H0v51h102v255c0 28.05 22.95 51 51 51h255v102h51V459h102v-51H153z"/></symbol><symbol id="icon-facebook" viewBox="0 0 8.673 18.944"><path fill="#d22856" d="M6.275 3.357h2.398V0H5.795C2.656.181 1.54 2.387 1.948 6.115H0v3.517h1.958v9.312h3.837V9.632h2.857V6.115H5.786c-.021-1.045-.036-2.406.489-2.758z"/></symbol><symbol id="icon-fill"><path d="M33.12 17.88L15.24 0l-2.83 2.83 4.76 4.76L6.88 17.88a3 3 0 0 0 0 4.24l11 11c.58.59 1.35.88 2.12.88s1.54-.29 2.12-.88l11-11a3 3 0 0 0 0-4.24zM10.41 20L20 10.42 29.59 20H10.41zM38 23s-4 4.33-4 7c0 2.21 1.79 4 4 4s4-1.79 4-4c0-2.67-4-7-4-7zM0 40h48v3H0z"/></symbol><symbol id="icon-heart" viewBox="521.939 473.064 12.545 11.99"><path d="M528.174 485.055a.737.737 0 0 1-.552-.25c-3.798-4.323-4.644-5.297-4.858-5.57l-.004.002a3.866 3.866 0 0 1-.82-2.373c0-2.095 1.703-3.8 3.798-3.8a3.8 3.8 0 0 1 2.484.9 3.847 3.847 0 0 1 2.463-.9c2.095 0 3.8 1.705 3.8 3.8 0 .91-.32 1.754-.897 2.38l-4.86 5.562a.742.742 0 0 1-.554.25zm-4.245-6.706c.207.254 2.47 2.838 4.242 4.857l4.323-4.944c.34-.37.52-.86.52-1.4a2.333 2.333 0 0 0-2.33-2.33c-.73 0-1.42.344-1.9.943a.76.76 0 0 1-.585.275.727.727 0 0 1-.575-.293 2.333 2.333 0 0 0-1.887-.925 2.333 2.333 0 0 0-2.33 2.33c0 .68.275 1.172.507 1.468.004.006.01.012.014.02z"/></symbol><symbol id="icon-mail" viewBox="0 0 17.988 13.966"><path fill="#d22856" d="M14.914 1.814C16.111.816 15.816 0 14.257 0H3.731c-1.56 0-1.854.816-.657 1.814l3.742 3.118c1.197.998 3.158.998 4.355 0l3.743-3.118z"/><path fill="#d22856" d="M11.913 7.044A209.809 209.809 0 0 1 9.695 8.88l-.02.013a1.048 1.048 0 0 1-.235.136c-.033.015-.066.034-.1.048a1.18 1.18 0 0 1-.335.059l-.01.001h-.002l-.01-.001a1.216 1.216 0 0 1-.335-.059c-.034-.014-.068-.033-.1-.048a1.07 1.07 0 0 1-.235-.136l-.02-.013c-.022-.012-1.02-.838-2.218-1.836L2.178 3.796C.979 2.798 0 3.257 0 4.816v6.315a2.842 2.842 0 0 0 2.835 2.835h12.318a2.842 2.842 0 0 0 2.835-2.835V4.816c0-1.559-.979-2.018-2.178-1.02l-3.897 3.248z"/></symbol><symbol id="icon-microsoft-logo" viewBox="0 0 43.922 41.992"><path fill="#F05423" d="M20.874 19.953H0V0h20.874v19.953z"/><path fill="#84C441" d="M43.922 19.953H23.049V0h20.873v19.953z"/><path fill="#2DABE2" d="M20.873 41.992H0V22.04h20.873v19.952z"/><path fill="#F9BC15" d="M43.922 41.992H23.049V22.04h20.873v19.952z"/></symbol><symbol id="icon-no" viewBox="0 0 26.752 26.752"><path fill="#f25b26" d="M15.497 13.376L26.312 2.562A1.5 1.5 0 1 0 24.191.441L13.376 11.255 2.562.439A1.5 1.5 0 1 0 .441 2.56l10.814 10.815L.439 24.19a1.5 1.5 0 1 0 2.122 2.121l10.815-10.814L24.19 26.312c.293.293.677.439 1.061.439s.768-.146 1.061-.439a1.5 1.5 0 0 0 0-2.121L15.497 13.376z"/></symbol><symbol id="icon-phone" viewBox="0 0 19.697 19.696"><path fill="#d22856" d="M9.848 0C6.34 0 2.823.628 1.546 1.878.488 2.918.134 4.752.016 5.913c0 0-.016.115-.016.165 0 .454.369.82.819.82.054 0 2.028-.161 3.218-.259a.503.503 0 0 0 .086-.017.821.821 0 0 0 .801-.819l.003-1.617c0-.5.407-.902.907-.902h8.027c.499 0 .907.402.907.902l.003 1.617a.82.82 0 0 0 .802.82.474.474 0 0 0 .085.017c1.19.098 3.164.259 3.217.259a.822.822 0 0 0 .822-.82c0-.05-.018-.165-.018-.165-.118-1.161-.472-2.995-1.53-4.035C16.873.628 13.356 0 9.848 0zm0 10.67a1.64 1.64 0 1 0 0 3.281 1.64 1.64 0 1 0 0-3.281zM8.616 6.975V5.951a1.024 1.024 0 1 0-2.049 0v1.024L1.03 12.888a2.054 2.054 0 0 0-.619 1.47v1.646c0 .907.734 1.643 1.641 1.643h.411v1.023a1.026 1.026 0 1 0 2.05 0v-1.023h10.669v1.023a1.025 1.025 0 1 0 2.051 0v-1.023h.411c.905 0 1.64-.735 1.64-1.643v-1.646c0-.576-.236-1.094-.618-1.47L13.13 6.975V5.951a1.025 1.025 0 1 0-2.051 0v1.024H8.616zm1.232 2.053c1.814 0 3.282 1.468 3.282 3.282s-1.468 3.282-3.282 3.282c-1.813 0-3.281-1.468-3.281-3.282s1.467-3.282 3.281-3.282z"/></symbol><symbol id="icon-twitter" viewBox="0 0 17.5 14.663"><path fill="#d22856" fill-rule="evenodd" clip-rule="evenodd" d="M11.283.153c1.736-.485 3.074.263 3.685 1.151.694-.226 1.372-.47 2.072-.691-.004.841-.538 1.478-.883 1.727.704.166 1.343-.48 1.343-.48-.175.976-1.035 1.746-1.611 1.977-.239 6.592-3.272 10.956-10.382 10.823h-.46c-.422 0-4.29-.45-5.047-1.843 2.341.192 4.011-.412 4.835-1.15-.989-.293-2.761-.464-3.07-2.881.362.105.583.223 1.228.117C1.757 8.067.385 7.366.461 5.218c.294.32 1.1.523 1.381.461C1.117 5.444-.188 2.398.921.843 2.794 2.654 4.769 4.364 8.29 4.528 8.506 2.288 9.461.787 11.283.153z"/></symbol><symbol id="icon-yes" viewBox="0 0 30.375 21.688"><path fill="#3dc644" d="M29.936.439a1.5 1.5 0 0 0-2.121 0L10.188 18.066l-7.627-7.627A1.5 1.5 0 1 0 .44 12.56l8.688 8.688c.293.293.677.439 1.061.439s.768-.146 1.061-.439L29.936 2.561a1.502 1.502 0 0 0 0-2.122z"/></symbol><symbol id="icon-youtube" viewBox="0 0 14.64 13.96"><path fill="#d22856" d="M1.775 13.78C.799 14.257 0 13.758 0 12.671V1.29C0 .202.799-.295 1.775.181l12.133 5.932c.975.478.975 1.258 0 1.736L1.775 13.78z"/></symbol><symbol id="logo-pink-blue-desktop" viewBox="0 0 146.3 40.375"><path d="M71.874 18.66c0-.707.58-1.287 1.256-1.287h7.18c5.087 0 8.436 2.704 8.436 7.146v.062c0 4.86-4.057 7.373-8.854 7.373h-5.475v6.825c0 .708-.58 1.287-1.29 1.287-.675 0-1.255-.58-1.255-1.287l.002-20.12zm8.114 10.98c3.734 0 6.182-1.995 6.182-4.958v-.062c0-3.22-2.414-4.894-6.053-4.894h-5.7v9.917h5.57v-.002zM93.603 18.5c0-.708.58-1.288 1.255-1.288.71 0 1.288.58 1.288 1.288v20.283a1.29 1.29 0 0 1-1.288 1.287c-.676 0-1.255-.58-1.255-1.287V18.5zm9.141.032c0-.676.58-1.256 1.256-1.256h.354c.58 0 .935.29 1.288.74l13.684 17.45V18.468c0-.676.547-1.256 1.256-1.256.676 0 1.225.58 1.225 1.256v20.35c0 .676-.48 1.19-1.158 1.19h-.13c-.548 0-.936-.322-1.318-.773l-13.976-17.867v17.45c0 .676-.547 1.256-1.257 1.256-.677 0-1.224-.58-1.224-1.257V18.532h-.002zm25.429-.032c0-.708.58-1.288 1.257-1.288.708 0 1.286.58 1.286 1.288v12.33l12.848-13.167c.29-.257.58-.45.998-.45.676 0 1.225.61 1.225 1.255 0 .354-.162.644-.42.9l-7.984 7.92 8.564 10.562c.225.29.354.547.354.936 0 .676-.576 1.288-1.284 1.288-.482 0-.807-.26-1.03-.58l-8.4-10.464-4.864 4.86v4.896a1.29 1.29 0 0 1-1.286 1.288c-.677 0-1.257-.58-1.257-1.288V18.5h-.007z" fill="#283645"/><path fill="#D22856" d="M98.498 9.875a3.623 3.623 0 0 1-3.623-3.624 3.625 3.625 0 0 1-3.625 3.625 3.625 3.625 0 0 1 3.625 3.624 3.623 3.623 0 0 1 3.623-3.625z"/><g fill="#D22856"><path d="M43.094 19.313c.246 0 .49.014.73.033a2.49 2.49 0 0 0-2.136-1.22 1.994 1.994 0 0 1-1.884-1.355c-.727.21-1.425.483-2.09.817.063.017.123.038.19.038a2 2 0 0 1 2 2c0 .096-.016.188-.03.28 1-.38 2.085-.592 3.22-.592z"/><path d="M60.462 28.016L55.287 6.65c-.36-2.347-2.593-6.65-8.6-6.65a1.5 1.5 0 0 0 0 3c4.857 0 5.576 3.73 5.64 4.143l4.767 19.7H55.02c-.444-3.556-2.452-6.627-5.304-8.52a2.503 2.503 0 0 0-1.53 2.302c0 .088-.014.17-.025.256a9.034 9.034 0 0 1 3.83 5.966c.082.488.135.987.135 1.5 0 .512-.053 1.012-.135 1.5-.716 4.27-4.42 7.53-8.896 7.53-4.475 0-8.18-3.26-8.896-7.53a9.035 9.035 0 0 1-.135-1.5c0-.513.053-1.012.135-1.5.147-.88.427-1.712.808-2.484a1.994 1.994 0 0 1-1.852-1.984.74.74 0 0 0-.192-.488 11.95 11.95 0 0 0-1.795 4.957h-1.82c-.74-5.927-5.802-10.53-11.927-10.53s-11.185 4.6-11.927 10.527H3.42l4.767-19.7C8.25 6.728 8.97 3 13.827 3a1.5 1.5 0 0 0 0-3c-6.007 0-8.24 4.303-8.6 6.65L.052 28.017c-.266 1.11.53 1.826 1.426 1.826.012 0 .023.004.036.004h3.982c.08.63.215 1.237.387 1.83a.726.726 0 0 0 .102-.353 2 2 0 0 1 2-2c.166 0 .324.024.478.062a8.337 8.337 0 0 1-.074-1.042c0-.512.052-1.01.134-1.5.715-4.27 4.42-7.53 8.896-7.53s8.18 3.26 8.896 7.53c.082.49.135.988.135 1.5s-.052 1.012-.134 1.5c-.715 4.272-4.42 7.53-8.896 7.53a8.96 8.96 0 0 1-5.386-1.793c-.35.302-.8.49-1.3.49a.75.75 0 0 0-.748.75c0 .288-.065.562-.176.81a11.94 11.94 0 0 0 7.614 2.744c6.125 0 11.185-4.604 11.927-10.53h1.815c.742 5.927 5.802 10.53 11.927 10.53s11.186-4.604 11.927-10.53H59c.012 0 .023-.004.036-.004.895.002 1.692-.715 1.426-1.824z"/></g><path fill="#283645" d="M50.686 16.125a4.5 4.5 0 0 1-4.5-4.5 4.5 4.5 0 0 1-4.498 4.5 4.5 4.5 0 0 1 4.5 4.5c0-2.486 2.012-4.5 4.498-4.5zm-12.782 3.501c-1.52 0-2.75-1.23-2.75-2.75 0 1.52-1.23 2.75-2.748 2.75 1.52 0 2.75 1.23 2.75 2.75 0-1.52 1.23-2.75 2.748-2.75zm-27.17 14.446c-1.52 0-2.75-1.23-2.75-2.75 0 1.52-1.23 2.75-2.748 2.75 1.52 0 2.75 1.23 2.75 2.748a2.748 2.748 0 0 1 2.748-2.748z"/></symbol><symbol id="logo-pink-blue-mobile" viewBox="0 0 146.3 40.375"><path d="M71.874 18.66c0-.707.58-1.287 1.256-1.287h7.18c5.087 0 8.436 2.704 8.436 7.146v.062c0 4.86-4.057 7.373-8.854 7.373h-5.475v6.825c0 .708-.58 1.287-1.29 1.287-.675 0-1.255-.58-1.255-1.287l.002-20.12zm8.114 10.98c3.734 0 6.182-1.995 6.182-4.958v-.062c0-3.22-2.414-4.894-6.053-4.894h-5.7v9.917h5.57v-.002zM93.603 18.5c0-.708.58-1.288 1.255-1.288.71 0 1.288.58 1.288 1.288v20.283a1.29 1.29 0 0 1-1.288 1.287c-.676 0-1.255-.58-1.255-1.287V18.5zm9.141.032c0-.676.58-1.256 1.256-1.256h.354c.58 0 .935.29 1.288.74l13.684 17.45V18.468c0-.676.547-1.256 1.256-1.256.676 0 1.225.58 1.225 1.256v20.35c0 .676-.48 1.19-1.158 1.19h-.13c-.548 0-.936-.322-1.318-.773l-13.976-17.867v17.45c0 .676-.547 1.256-1.257 1.256-.677 0-1.224-.58-1.224-1.257V18.532h-.002zm25.429-.032c0-.708.58-1.288 1.257-1.288.708 0 1.286.58 1.286 1.288v12.33l12.848-13.167c.29-.257.58-.45.998-.45.676 0 1.225.61 1.225 1.255 0 .354-.162.644-.42.9l-7.984 7.92 8.564 10.562c.225.29.354.547.354.936 0 .676-.576 1.288-1.284 1.288-.482 0-.807-.26-1.03-.58l-8.4-10.464-4.864 4.86v4.896a1.29 1.29 0 0 1-1.286 1.288c-.677 0-1.257-.58-1.257-1.288V18.5h-.007z" fill="#283645"/><path fill="#D22856" d="M60.462 28.016L55.287 6.65c-.36-2.347-2.593-6.65-8.6-6.65a1.5 1.5 0 0 0 0 3c4.857 0 5.576 3.73 5.64 4.143l4.767 19.7H55.02c-.74-5.926-5.8-10.53-11.926-10.53s-11.186 4.604-11.927 10.53h-1.82c-.74-5.926-5.802-10.53-11.927-10.53S6.235 20.917 5.493 26.843H3.42l4.767-19.7C8.25 6.73 8.97 3 13.827 3a1.5 1.5 0 0 0 0-3c-6.007 0-8.24 4.303-8.6 6.65L.052 28.017c-.266 1.11.53 1.826 1.426 1.826.012 0 .023.004.036.004h3.982c.74 5.926 5.802 10.53 11.927 10.53s11.185-4.604 11.927-10.53h1.814c.742 5.926 5.802 10.53 11.927 10.53s11.187-4.604 11.928-10.53H59c.012 0 .023-.004.036-.004.895 0 1.692-.717 1.426-1.826zm-34.147 1.828c-.715 4.272-4.42 7.53-8.896 7.53s-8.18-3.258-8.897-7.53c-.082-.488-.135-.988-.135-1.5s.053-1.01.135-1.5c.715-4.27 4.42-7.53 8.896-7.53s8.18 3.26 8.895 7.53c.082.49.135.988.135 1.5s-.053 1.01-.135 1.5zm25.675 0c-.716 4.272-4.42 7.53-8.896 7.53-4.475 0-8.18-3.258-8.896-7.53-.082-.488-.135-.988-.135-1.5s.053-1.01.135-1.5c.716-4.27 4.42-7.53 8.896-7.53 4.475 0 8.18 3.26 8.896 7.53.082.49.135.988.135 1.5s-.053 1.01-.135 1.5z"/></symbol><symbol id="logo-pink-white-desktop" viewBox="0 0 146.3 40.375"><path d="M71.874 18.66c0-.707.58-1.287 1.256-1.287h7.18c5.087 0 8.436 2.704 8.436 7.146v.063c0 4.86-4.057 7.373-8.854 7.373h-5.475v6.825c0 .71-.58 1.29-1.288 1.29-.677 0-1.257-.58-1.257-1.29V18.66zm8.114 10.98c3.734 0 6.182-1.995 6.182-4.958v-.063c0-3.22-2.414-4.895-6.053-4.895h-5.7v9.917h5.57zM93.603 18.5c0-.708.58-1.288 1.255-1.288.71 0 1.288.58 1.288 1.288v20.283a1.29 1.29 0 0 1-1.288 1.287c-.676 0-1.255-.58-1.255-1.287V18.5zm9.141.032c0-.676.58-1.256 1.256-1.256h.354c.58 0 .935.29 1.288.74l13.684 17.45V18.468c0-.676.547-1.256 1.256-1.256.676 0 1.224.58 1.224 1.256v20.35c0 .675-.48 1.19-1.158 1.19h-.13c-.547 0-.934-.322-1.318-.773l-13.975-17.868v17.45c0 .676-.547 1.256-1.256 1.256-.677 0-1.224-.58-1.224-1.256V18.532h-.002zm25.429-.032c0-.708.58-1.288 1.257-1.288.708 0 1.286.58 1.286 1.288v12.33l12.848-13.167c.29-.257.58-.45.998-.45.676 0 1.225.61 1.225 1.255 0 .354-.162.644-.42.9l-7.984 7.92 8.564 10.562c.225.29.354.547.354.935 0 .676-.577 1.288-1.285 1.288-.483 0-.806-.258-1.03-.58l-8.402-10.463-4.863 4.86v4.895a1.29 1.29 0 0 1-1.286 1.288c-.677 0-1.257-.58-1.257-1.288V18.5h-.004z" fill="#FFF"/><path fill="#D22856" d="M98.498 9.875a3.623 3.623 0 0 1-3.623-3.624 3.625 3.625 0 0 1-3.625 3.625 3.625 3.625 0 0 1 3.625 3.624 3.623 3.623 0 0 1 3.623-3.625z"/><g fill="#FFF"><path d="M43.094 19.313c.246 0 .49.014.73.033a2.49 2.49 0 0 0-2.136-1.22 1.994 1.994 0 0 1-1.884-1.355c-.727.21-1.425.483-2.09.817.063.017.123.038.19.038a2 2 0 0 1 2 2c0 .096-.016.188-.03.28 1-.38 2.085-.592 3.22-.592z"/><path d="M60.462 28.016L55.287 6.65c-.36-2.347-2.593-6.65-8.6-6.65a1.5 1.5 0 0 0 0 3c4.857 0 5.576 3.73 5.64 4.143l4.767 19.7H55.02c-.444-3.556-2.452-6.627-5.304-8.52a2.503 2.503 0 0 0-1.53 2.302c0 .088-.014.17-.025.256a9.034 9.034 0 0 1 3.83 5.965c.082.49.135.988.135 1.5s-.053 1.012-.135 1.5c-.716 4.272-4.42 7.53-8.896 7.53-4.475 0-8.18-3.258-8.896-7.53-.082-.488-.135-.988-.135-1.5s.053-1.01.135-1.5a8.95 8.95 0 0 1 .808-2.483 1.995 1.995 0 0 1-1.852-1.985.743.743 0 0 0-.192-.49 11.954 11.954 0 0 0-1.795 4.96h-1.82c-.74-5.928-5.802-10.532-11.927-10.532S6.235 20.917 5.493 26.845H3.42L8.187 7.142C8.25 6.73 8.97 3 13.827 3a1.5 1.5 0 0 0 0-3c-6.007 0-8.24 4.303-8.6 6.65L.052 28.017c-.266 1.11.53 1.826 1.426 1.826.012 0 .023.004.036.004h3.982c.08.628.215 1.237.387 1.83a.726.726 0 0 0 .102-.353 2 2 0 0 1 2-2c.166 0 .324.025.478.063a8.337 8.337 0 0 1-.074-1.042c0-.512.052-1.01.134-1.5.715-4.27 4.42-7.53 8.896-7.53s8.18 3.26 8.896 7.53c.082.49.135.988.135 1.5s-.052 1.012-.134 1.5c-.715 4.272-4.42 7.53-8.896 7.53a8.96 8.96 0 0 1-5.386-1.793c-.35.303-.8.492-1.3.492a.75.75 0 0 0-.748.748c0 .29-.065.564-.176.812a11.94 11.94 0 0 0 7.614 2.743c6.125 0 11.185-4.604 11.927-10.53h1.815c.742 5.926 5.802 10.53 11.927 10.53s11.186-4.604 11.927-10.53H59c.012 0 .023-.004.036-.004.895.002 1.692-.715 1.426-1.824z"/></g><path fill="#D22856" d="M50.686 16.125a4.5 4.5 0 0 1-4.5-4.5 4.5 4.5 0 0 1-4.498 4.5 4.5 4.5 0 0 1 4.5 4.5c0-2.486 2.012-4.5 4.498-4.5zm-12.782 3.501c-1.52 0-2.75-1.23-2.75-2.75 0 1.52-1.23 2.75-2.748 2.75 1.52 0 2.75 1.23 2.75 2.75 0-1.52 1.23-2.75 2.748-2.75zm-27.17 14.446c-1.52 0-2.75-1.23-2.75-2.75 0 1.52-1.23 2.75-2.748 2.75 1.52 0 2.75 1.23 2.75 2.748a2.748 2.748 0 0 1 2.748-2.748z"/></symbol><symbol id="logo-pink-white-mobile" viewBox="0 0 74.426 22.859"><path d="M0 1.45C0 .74.58.16 1.256.16h7.18c5.087 0 8.436 2.705 8.436 7.148v.064c0 4.86-4.057 7.373-8.854 7.373H2.544v6.825c0 .708-.58 1.288-1.288 1.288C.58 22.858 0 22.278 0 21.57V1.45zm8.114 10.978c3.734 0 6.182-1.996 6.182-4.958v-.065c0-3.22-2.415-4.894-6.054-4.894H2.544v9.918h5.57zM21.73 1.288C21.73.58 22.307 0 22.982 0c.71 0 1.288.58 1.288 1.288V21.57c0 .71-.578 1.29-1.287 1.29-.676 0-1.255-.58-1.255-1.29V1.29zm9.14.032c0-.676.58-1.256 1.256-1.256h.354c.58 0 .934.29 1.288.74l13.684 17.45V1.256C47.452.58 47.998 0 48.707 0c.676 0 1.223.58 1.223 1.256v20.348c0 .676-.482 1.19-1.158 1.19h-.13c-.547 0-.933-.32-1.32-.77L33.35 4.153v17.45c0 .675-.548 1.255-1.256 1.255-.677 0-1.224-.58-1.224-1.257V1.32zm25.43-.032C56.3.58 56.88 0 57.556 0c.708 0 1.287.58 1.287 1.288v12.33L71.69.452c.29-.257.58-.45.998-.45.676 0 1.224.612 1.224 1.256 0 .354-.16.644-.42.9l-7.983 7.92 8.563 10.562c.225.29.354.547.354.934 0 .676-.58 1.288-1.287 1.288-.483 0-.806-.258-1.03-.58l-8.403-10.463-4.862 4.86v4.895a1.29 1.29 0 0 1-1.287 1.288c-.677 0-1.256-.58-1.256-1.288V1.288z" fill="#FFF"/></symbol><symbol id="logo-pink-white-tablet" viewBox="0 0 146.3 40.375"><path d="M71.874 18.66c0-.707.58-1.287 1.256-1.287h7.18c5.087 0 8.436 2.704 8.436 7.146v.063c0 4.86-4.057 7.373-8.854 7.373h-5.475v6.825c0 .71-.58 1.29-1.288 1.29-.677 0-1.257-.58-1.257-1.29V18.66zm8.114 10.98c3.734 0 6.182-1.995 6.182-4.958v-.063c0-3.22-2.414-4.895-6.053-4.895h-5.7v9.917h5.57zM93.603 18.5c0-.708.58-1.288 1.255-1.288.71 0 1.288.58 1.288 1.288v20.283a1.29 1.29 0 0 1-1.288 1.287c-.676 0-1.255-.58-1.255-1.287V18.5zm9.141.032c0-.676.58-1.256 1.256-1.256h.354c.58 0 .935.29 1.288.74l13.684 17.45V18.468c0-.676.547-1.256 1.256-1.256.676 0 1.224.58 1.224 1.256v20.35c0 .675-.48 1.19-1.158 1.19h-.13c-.547 0-.934-.322-1.318-.773l-13.975-17.868v17.45c0 .676-.547 1.256-1.256 1.256-.677 0-1.224-.58-1.224-1.256V18.532h-.002zm25.429-.032c0-.708.58-1.288 1.257-1.288.708 0 1.286.58 1.286 1.288v12.33l12.848-13.167c.29-.257.58-.45.998-.45.676 0 1.225.61 1.225 1.255 0 .354-.162.644-.42.9l-7.984 7.92 8.564 10.562c.225.29.354.547.354.935 0 .676-.577 1.288-1.285 1.288-.483 0-.806-.258-1.03-.58l-8.402-10.463-4.863 4.86v4.895a1.29 1.29 0 0 1-1.286 1.288c-.677 0-1.257-.58-1.257-1.288V18.5h-.004zM60.462 28.016L55.287 6.65c-.36-2.347-2.593-6.65-8.6-6.65a1.5 1.5 0 0 0 0 3c4.857 0 5.576 3.73 5.64 4.143l4.767 19.7H55.02c-.74-5.926-5.8-10.53-11.926-10.53s-11.186 4.604-11.927 10.53h-1.82c-.74-5.926-5.802-10.53-11.927-10.53S6.235 20.917 5.493 26.843H3.42l4.767-19.7C8.25 6.73 8.97 3 13.827 3a1.5 1.5 0 0 0 0-3c-6.007 0-8.24 4.303-8.6 6.65L.052 28.017c-.266 1.11.53 1.826 1.426 1.826.012 0 .023.004.036.004h3.982c.74 5.926 5.802 10.53 11.927 10.53s11.185-4.604 11.927-10.53h1.814c.742 5.926 5.802 10.53 11.927 10.53s11.187-4.604 11.928-10.53H59c.012 0 .023-.004.036-.004.895 0 1.692-.717 1.426-1.826zm-34.147 1.828c-.715 4.272-4.42 7.53-8.896 7.53-4.476 0-8.18-3.258-8.897-7.53-.082-.488-.135-.988-.135-1.5s.053-1.01.135-1.5c.715-4.27 4.42-7.53 8.896-7.53 4.474 0 8.18 3.26 8.895 7.53.082.49.135.988.135 1.5s-.053 1.01-.135 1.5zm25.675 0c-.716 4.272-4.42 7.53-8.896 7.53-4.475 0-8.18-3.258-8.896-7.53-.082-.488-.135-.988-.135-1.5s.053-1.01.135-1.5c.716-4.27 4.42-7.53 8.896-7.53 4.475 0 8.18 3.26 8.896 7.53.082.49.135.988.135 1.5s-.053 1.01-.135 1.5z" fill="#FFF"/></symbol></svg>